<svg  viewBox="0 0 129 128" fill="none" xmlns="http://www.w3.org/2000/svg">
<path d="M73.0199 0L74.8092 3.05389L77.8766 4.58083L74.8092 6.36226L73.0199 9.41615L71.4862 6.36226L68.4188 4.58083L71.4862 3.05389L73.0199 0Z" fill="#FFA500"/>
<path d="M124.143 25.4491L125.933 28.503L129 30.0299L125.933 31.8114L124.143 34.8652L122.61 31.8114L119.542 30.0299L122.61 28.503L124.143 25.4491Z" fill="#FFA500"/>
<path d="M101.649 29.7753C101.649 20.3592 106.761 12.2155 114.43 7.63467C110.596 5.34426 106.25 4.32629 101.649 4.32629C87.5901 4.32629 76.0874 15.7784 76.0874 29.7753C76.0874 43.7723 87.5901 55.2244 101.649 55.2244C106.25 55.2244 110.596 53.9519 114.43 51.916C106.761 47.5897 101.649 39.1915 101.649 29.7753Z" fill="#FFA500" stroke="#FFA500" stroke-width="1.6" stroke-linejoin="round"/>
<path d="M101.969 61.0777C101.969 46.4445 90.1463 34.9924 75.7678 34.9924C72.5726 34.9924 69.697 35.6287 66.8213 36.583C65.8627 25.7672 56.9161 16.86 45.7329 16.86C33.9106 16.86 24.325 26.4034 24.325 38.1736C24.325 40.7185 24.9641 43.2634 25.6031 45.4902C24.6445 45.1721 23.3664 45.172 22.4079 45.172C10.5856 45.172 1 54.7154 1 66.4856C1 77.9377 10.2661 87.4811 21.7688 87.7992H76.7264C90.7853 86.2086 101.969 75.0747 101.969 61.0777Z" fill="#57A0EE" stroke="white" stroke-width="1.2" stroke-linejoin="round"/>
<path d="M37.3909 98.5183L32.9521 123.581" stroke="#51A0FF" stroke-width="3" stroke-linecap="round" stroke-dasharray="4 4"/>
<path d="M51.0872 94.4624L46.6484 119.525" stroke="#51A0FF" stroke-width="3" stroke-linecap="round" stroke-dasharray="4 4"/>
<path d="M63.1191 99.8048L58.6804 124.867" stroke="#51A0FF" stroke-width="3" stroke-linecap="round" stroke-dasharray="4 4"/>
</svg>
