<svg viewBox="0 0 36 36" fill="none" xmlns="http://www.w3.org/2000/svg">
<path d="M35.5463 33.4341L25.2173 23.0893C27.2536 20.6453 28.4783 17.5219 28.4783 14.1106C28.4783 6.32797 22.0965 0 14.2465 0C6.39656 0 0 6.33535 0 14.1179C0 21.9005 6.3818 28.2285 14.2318 28.2285C17.5666 28.2285 20.6357 27.084 23.0704 25.1716L33.4362 35.5459C34.0412 36.1514 34.9413 36.1514 35.5463 35.5459C36.1512 34.9404 36.1512 34.0396 35.5463 33.4341ZM3.0249 14.1179C3.0249 8.0041 8.05656 3.03477 14.2318 3.03477C20.407 3.03477 25.4387 8.0041 25.4387 14.1179C25.4387 20.2318 20.407 25.2011 14.2318 25.2011C8.05656 25.2011 3.0249 20.2244 3.0249 14.1179Z" fill="white"/>
</svg>
