<svg viewBox="0 0 130 112" fill="none" xmlns="http://www.w3.org/2000/svg">
<path d="M92.2203 33.8817C92.2203 23 83.2279 14.4839 72.2912 14.4839C69.8608 14.4839 67.6735 14.957 65.4861 15.6667C64.757 7.62366 57.9519 1 49.4456 1C40.4532 1 33.1621 8.09678 33.1621 16.8495C33.1621 18.7419 33.6481 20.6344 34.1342 22.2903C33.4051 22.0538 32.4329 22.0538 31.7038 22.0538C22.7114 22.0538 15.4203 29.1505 15.4203 37.9032C15.4203 46.4193 22.4684 53.5161 31.2178 53.7527H73.0203C83.714 52.5699 92.2203 44.2903 92.2203 33.8817Z" fill="#91C0F8" stroke="white" stroke-width="0.72" stroke-linejoin="round"/>
<path d="M129 77.8818C129 59.7456 114.013 45.552 95.7848 45.552C91.7342 45.552 88.0886 46.3405 84.443 47.5233C83.2279 34.1183 71.8861 23.0789 57.7089 23.0789C42.7215 23.0789 30.5696 34.9069 30.5696 49.4947C30.5696 52.6488 31.3797 55.8029 32.1899 58.5628C30.9747 58.1685 29.3544 58.1685 28.1392 58.1685C13.1519 58.1685 1 69.9965 1 84.5843C1 98.7778 12.7468 110.606 27.3291 111H97C114.823 109.029 129 95.2294 129 77.8818Z" fill="#57A0EE" stroke="white" stroke-width="1.2" stroke-linejoin="round"/>
</svg>
