<svg viewBox="0 0 129 128" fill="none" xmlns="http://www.w3.org/2000/svg">
<path d="M73.0199 0L74.8092 3.15968L77.8766 4.73953L74.8092 6.58267L73.0199 9.74236L71.4862 6.58267L68.4188 4.73953L71.4862 3.15968L73.0199 0Z" fill="#FFA500"/>
<path d="M124.143 26.3307L125.933 29.4904L129 31.0702L125.933 32.9134L124.143 36.073L122.61 32.9134L119.542 31.0702L122.61 29.4904L124.143 26.3307Z" fill="#FFA500"/>
<path d="M101.649 30.8069C101.649 21.0645 106.761 12.6387 114.43 7.89919C110.596 5.52942 106.25 4.4762 101.649 4.4762C87.5901 4.4762 76.0874 16.325 76.0874 30.8069C76.0874 45.2888 87.5901 57.1376 101.649 57.1376C106.25 57.1376 110.596 55.8211 114.43 53.7146C106.761 49.2384 101.649 40.5493 101.649 30.8069Z" fill="#FFA500" stroke="#FFA500" stroke-width="1.6" stroke-linejoin="round"/>
<path d="M101.969 63.1937C101.969 48.0535 90.1463 36.2047 75.7678 36.2047C72.5726 36.2047 69.697 36.863 66.8213 37.8504C65.8627 26.6598 56.9161 17.4441 45.7329 17.4441C33.9106 17.4441 24.325 27.3181 24.325 39.4961C24.325 42.1291 24.9641 44.7622 25.6031 47.0661C24.6445 46.737 23.3664 46.737 22.4079 46.737C10.5856 46.737 1 56.611 1 68.7889C1 80.6378 10.2661 90.5118 21.7688 90.8409H76.7264C90.7853 89.1952 101.969 77.6756 101.969 63.1937Z" fill="#57A0EE" stroke="white" stroke-width="1.2" stroke-linejoin="round"/>
<path d="M40.5862 98.6401L36.1474 124.571" stroke="#51A0FF" stroke-width="3" stroke-linecap="round" stroke-dasharray="4 7"/>
<path d="M60.5759 95.5867L56.1372 121.517" stroke="#51A0FF" stroke-width="3" stroke-linecap="round" stroke-dasharray="4 7"/>
</svg>
