<svg  viewBox="0 0 130 129" fill="none" xmlns="http://www.w3.org/2000/svg">
<path d="M39.6902 70.6859V80.641" stroke="#FFA500" stroke-width="2" stroke-linecap="round"/>
<path d="M19.1716 61.9385L12.3321 68.9778" stroke="#FFA500" stroke-width="2" stroke-linecap="round"/>
<path d="M10.6725 40.8205H0.999942" stroke="#FFA500" stroke-width="2" stroke-linecap="round"/>
<path d="M19.1716 19.7025L12.3321 12.6631" stroke="#FFA500" stroke-width="2" stroke-linecap="round"/>
<path d="M39.6902 10.9551V1.00001" stroke="#FFA500" stroke-width="2" stroke-linecap="round"/>
<path d="M60.2087 19.7025L67.0483 12.6631" stroke="#FFA500" stroke-width="2" stroke-linecap="round"/>
<path d="M68.7078 40.8205H78.3803" stroke="#FFA500" stroke-width="2" stroke-linecap="round"/>
<path d="M60.2087 61.9385L67.0483 68.9778" stroke="#FFA500" stroke-width="2" stroke-linecap="round"/>
<path d="M39.6901 57.4124C48.5935 57.4124 55.811 49.984 55.811 40.8205C55.811 31.6571 48.5935 24.2286 39.6901 24.2286C30.7868 24.2286 23.5692 31.6571 23.5692 40.8205C23.5692 49.984 30.7868 57.4124 39.6901 57.4124Z" fill="#FFA500" stroke="#FFA500" stroke-width="2"/>
<path d="M129 68.6949C129 53.4303 117.071 41.4842 102.562 41.4842C99.3375 41.4842 96.4357 42.1479 93.534 43.1434C92.5667 31.8609 83.539 22.5694 72.2544 22.5694C60.3249 22.5694 50.6524 32.5246 50.6524 44.8026C50.6524 47.4573 51.2972 50.1119 51.942 52.4348C50.9748 52.103 49.6851 52.103 48.7179 52.103C36.7884 52.103 27.1158 62.0581 27.1158 74.3361C27.1158 86.2822 36.466 96.2374 48.073 96.5692H103.529C117.715 94.91 129 83.2957 129 68.6949Z" fill="#57A0EE" stroke="white" stroke-width="1.2" stroke-linejoin="round"/>
<path d="M66.9737 104.476L63.2906 126.138" stroke="#51A0FF" stroke-width="3" stroke-linecap="round" stroke-dasharray="4 7"/>
<path d="M83.3888 103.023L80.0832 123.044" stroke="#51A0FF" stroke-width="3" stroke-linecap="round" stroke-dasharray="4 7"/>
</svg>
