<svg  viewBox="0 0 130 129" fill="none" xmlns="http://www.w3.org/2000/svg">
<path d="M129 51.7504C129 34.9553 114.013 21.8113 95.7848 21.8113C91.7342 21.8113 88.0886 22.5415 84.443 23.6369C83.2279 11.2231 71.8861 1 57.7089 1C42.7215 1 30.5696 11.9533 30.5696 25.4624C30.5696 28.3833 31.3797 31.3042 32.1899 33.86C30.9747 33.4949 29.3544 33.4949 28.1392 33.4949C13.1519 33.4949 1 44.4482 1 57.9573C1 71.1012 12.7468 82.0546 27.3291 82.4197H97C114.823 80.5941 129 67.8153 129 51.7504Z" fill="#57A0EE" stroke="white" stroke-width="1.2" stroke-linejoin="round"/>
<path d="M44.6946 95.1627L39.0675 123.928" stroke="#51A0FF" stroke-width="3" stroke-linecap="round" stroke-dasharray="4 4"/>
<path d="M62.0576 90.5075L56.4305 119.273" stroke="#51A0FF" stroke-width="3" stroke-linecap="round" stroke-dasharray="4 4"/>
<path d="M77.3108 96.6392L71.6837 125.404" stroke="#51A0FF" stroke-width="3" stroke-linecap="round" stroke-dasharray="4 4"/>
</svg>
