<svg  viewBox="0 0 130 112" fill="none" xmlns="http://www.w3.org/2000/svg">
<path d="M129 53.7241C129 36.2759 114.013 22.6207 95.7848 22.6207C91.7342 22.6207 88.0886 23.3793 84.443 24.5172C83.2279 11.6207 71.8861 1 57.7089 1C42.7215 1 30.5696 12.3793 30.5696 26.4138C30.5696 29.4483 31.3797 32.4828 32.1899 35.1379C30.9747 34.7586 29.3544 34.7586 28.1392 34.7586C13.1519 34.7586 1 46.1379 1 60.1724C1 73.8276 12.7468 85.2069 27.3291 85.5862H97C114.823 83.6897 129 70.4138 129 53.7241Z" fill="#57A0EE" stroke="white" stroke-width="1.2" stroke-linejoin="round"/>
<path d="M28.9495 92.0344V111" stroke="#51A0FF" stroke-width="1.2" stroke-linecap="round"/>
<path d="M36.11 94.8119L21.7888 108.223" stroke="#51A0FF" stroke-linecap="round"/>
<path d="M39.076 101.517H18.8229" stroke="#51A0FF" stroke-linecap="round"/>
<path d="M36.11 108.223L21.7888 94.8119" stroke="#51A0FF" stroke-linecap="round"/>
<path d="M61.3545 92.0344V111" stroke="#51A0FF" stroke-width="1.2" stroke-linecap="round"/>
<path d="M68.5151 94.8119L54.194 108.223" stroke="#51A0FF" stroke-linecap="round"/>
<path d="M71.4811 101.517H51.2279" stroke="#51A0FF" stroke-linecap="round"/>
<path d="M68.5151 108.223L54.194 94.8119" stroke="#51A0FF" stroke-linecap="round"/>
<path d="M97.8102 92.0344V111" stroke="#51A0FF" stroke-width="1.2" stroke-linecap="round"/>
<path d="M104.971 94.8119L90.6497 108.223" stroke="#51A0FF" stroke-linecap="round"/>
<path d="M107.937 101.517H87.6836" stroke="#51A0FF" stroke-linecap="round"/>
<path d="M104.971 108.223L90.6497 94.8119" stroke="#51A0FF" stroke-linecap="round"/>
</svg>
