<svg  viewBox="0 0 129 101" fill="none" xmlns="http://www.w3.org/2000/svg">
<path d="M73.0199 0L74.8092 3.47826L77.8766 5.21739L74.8092 7.24638L73.0199 10.7246L71.4862 7.24638L68.4188 5.21739L71.4862 3.47826L73.0199 0Z" fill="#FFA500"/>
<path d="M124.143 28.9854L125.933 32.4637L129 34.2028L125.933 36.2318L124.143 39.71L122.61 36.2318L119.542 34.2028L122.61 32.4637L124.143 28.9854Z" fill="#FFA500"/>
<path d="M101.649 33.913C101.649 23.1884 106.761 13.913 114.43 8.69561C110.596 6.08691 106.25 4.92749 101.649 4.92749C87.5901 4.92749 76.0874 17.971 76.0874 33.913C76.0874 49.855 87.5901 62.8985 101.649 62.8985C106.25 62.8985 110.596 61.4492 114.43 59.1304C106.761 54.2029 101.649 44.6376 101.649 33.913Z" fill="#FFA500" stroke="#FFA500" stroke-width="1.6" stroke-linejoin="round"/>
<path d="M101.969 69.5652C101.969 52.8985 90.1463 39.8551 75.7678 39.8551C72.5726 39.8551 69.697 40.5797 66.8213 41.6667C65.8627 29.3478 56.9161 19.2029 45.7329 19.2029C33.9106 19.2029 24.325 30.0724 24.325 43.4782C24.325 46.3768 24.9641 49.2753 25.6031 51.8116C24.6445 51.4493 23.3664 51.4493 22.4079 51.4493C10.5856 51.4493 1 62.3188 1 75.7246C1 88.7681 10.2661 99.6377 21.7688 100H76.7264C90.7853 98.1884 101.969 85.5072 101.969 69.5652Z" fill="#57A0EE" stroke="white" stroke-width="1.2" stroke-linejoin="round"/>
</svg>
