<svg  viewBox="0 0 130 130" fill="none" xmlns="http://www.w3.org/2000/svg">
<path d="M39.6902 75.6667V86.3334" stroke="#FFA500" stroke-width="2" stroke-linecap="round"/>
<path d="M19.1716 66.2941L12.3321 73.8365" stroke="#FFA500" stroke-width="2" stroke-linecap="round"/>
<path d="M10.6725 43.6667H0.999942" stroke="#FFA500" stroke-width="2" stroke-linecap="round"/>
<path d="M19.1716 21.0393L12.3321 13.4968" stroke="#FFA500" stroke-width="2" stroke-linecap="round"/>
<path d="M39.6902 11.6667V1.00002" stroke="#FFA500" stroke-width="2" stroke-linecap="round"/>
<path d="M60.2087 21.0393L67.0483 13.4968" stroke="#FFA500" stroke-width="2" stroke-linecap="round"/>
<path d="M68.7078 43.6667H78.3803" stroke="#FFA500" stroke-width="2" stroke-linecap="round"/>
<path d="M60.2087 66.2941L67.0483 73.8365" stroke="#FFA500" stroke-width="2" stroke-linecap="round"/>
<path d="M39.6901 61.4445C48.5935 61.4445 55.811 53.4851 55.811 43.6667C55.811 33.8483 48.5935 25.8889 39.6901 25.8889C30.7868 25.8889 23.5692 33.8483 23.5692 43.6667C23.5692 53.4851 30.7868 61.4445 39.6901 61.4445Z" fill="#FFA500" stroke="#FFA500" stroke-width="2"/>
<path d="M129 73.5333C129 57.1778 117.071 44.3778 102.562 44.3778C99.3375 44.3778 96.4357 45.0889 93.534 46.1555C92.5667 34.0666 83.539 24.1111 72.2544 24.1111C60.3249 24.1111 50.6524 34.7778 50.6524 47.9333C50.6524 50.7778 51.2972 53.6222 51.942 56.1111C50.9748 55.7555 49.6851 55.7555 48.7179 55.7555C36.7884 55.7555 27.1158 66.4222 27.1158 79.5777C27.1158 92.3777 36.466 103.044 48.073 103.4H103.529C117.715 101.622 129 89.1778 129 73.5333Z" fill="#57A0EE" stroke="white" stroke-width="1.2" stroke-linejoin="round"/>
<path d="M63.8716 111.222V129" stroke="#51A0FF" stroke-width="1.2" stroke-linecap="round"/>
<path d="M69.5712 113.826L58.172 126.397" stroke="#51A0FF" stroke-linecap="round"/>
<path d="M71.932 120.111H55.8111" stroke="#51A0FF" stroke-linecap="round"/>
<path d="M69.5712 126.396L58.172 113.826" stroke="#51A0FF" stroke-linecap="round"/>
<path d="M92.8892 111.222V129" stroke="#51A0FF" stroke-width="1.2" stroke-linecap="round"/>
<path d="M98.5887 113.826L87.1895 126.397" stroke="#51A0FF" stroke-linecap="round"/>
<path d="M100.95 120.111H84.8287" stroke="#51A0FF" stroke-linecap="round"/>
<path d="M98.5887 126.396L87.1895 113.826" stroke="#51A0FF" stroke-linecap="round"/>
</svg>
