<svg  viewBox="0 0 130 129" fill="none" xmlns="http://www.w3.org/2000/svg">
<path d="M129 52.7762C129 35.6416 114.013 22.232 95.7848 22.232C91.7342 22.232 88.0886 22.977 84.443 24.0944C83.2279 11.4297 71.8861 1 57.7089 1C42.7215 1 30.5696 12.1747 30.5696 25.9569C30.5696 28.9368 31.3797 31.9167 32.1899 34.5242C30.9747 34.1517 29.3544 34.1517 28.1392 34.1517C13.1519 34.1517 1 45.3264 1 59.1086C1 72.5182 12.7468 83.6929 27.3291 84.0654H97C114.823 82.203 129 69.1658 129 52.7762Z" fill="#57A0EE" stroke="white" stroke-width="1.2" stroke-linejoin="round"/>
<path d="M48.8684 95.7725L43.2413 125.119" stroke="#51A0FF" stroke-width="3" stroke-linecap="round" stroke-dasharray="4 7"/>
<path d="M74.2098 92.3168L68.5828 121.663" stroke="#51A0FF" stroke-width="3" stroke-linecap="round" stroke-dasharray="4 7"/>
</svg>
