<svg  viewBox="0 0 130 112" fill="none" xmlns="http://www.w3.org/2000/svg">
<path d="M129 53.7241C129 36.2759 114.013 22.6207 95.7848 22.6207C91.7342 22.6207 88.0886 23.3793 84.443 24.5172C83.2279 11.6207 71.8861 1 57.7089 1C42.7215 1 30.5696 12.3793 30.5696 26.4138C30.5696 29.4483 31.3797 32.4828 32.1899 35.1379C30.9747 34.7586 29.3544 34.7586 28.1392 34.7586C13.1519 34.7586 1 46.1379 1 60.1724C1 73.8276 12.7468 85.2069 27.3291 85.5862H97C114.823 83.6897 129 70.4138 129 53.7241Z" fill="#57A0EE" stroke="white" stroke-width="1.2" stroke-linejoin="round"/>
<path d="M45.152 92.0344V111" stroke="#51A0FF" stroke-width="1.2" stroke-linecap="round"/>
<path d="M52.3125 94.8119L37.9914 108.223" stroke="#51A0FF" stroke-linecap="round"/>
<path d="M55.2786 101.517H35.0254" stroke="#51A0FF" stroke-linecap="round"/>
<path d="M52.3125 108.223L37.9914 94.8119" stroke="#51A0FF" stroke-linecap="round"/>
<path d="M81.6077 92.0344V111" stroke="#51A0FF" stroke-width="1.2" stroke-linecap="round"/>
<path d="M88.7682 94.8119L74.447 108.223" stroke="#51A0FF" stroke-linecap="round"/>
<path d="M91.7343 101.517H71.4811" stroke="#51A0FF" stroke-linecap="round"/>
<path d="M88.7682 108.223L74.447 94.8119" stroke="#51A0FF" stroke-linecap="round"/>
</svg>
