<svg  viewBox="0 0 130 130" fill="none" xmlns="http://www.w3.org/2000/svg">
<path d="M92.2203 28.6416C92.2203 19.494 83.2279 12.3351 72.2912 12.3351C69.8608 12.3351 67.6735 12.7328 65.4861 13.3294C64.757 6.5681 57.9519 1 49.4456 1C40.4532 1 33.1621 6.96582 33.1621 14.3237C33.1621 15.9146 33.6481 17.5054 34.1342 18.8975C33.4051 18.6986 32.4329 18.6986 31.7038 18.6986C22.7114 18.6986 15.4203 24.6644 15.4203 32.0223C15.4203 39.1813 22.4684 45.1471 31.2178 45.3459H73.0203C83.714 44.3516 92.2203 37.3915 92.2203 28.6416Z" fill="#91C0F8" stroke="white" stroke-width="0.72" stroke-linejoin="round"/>
<path d="M129 59.001C129 43.7551 114.013 31.8234 95.7848 31.8234C91.7342 31.8234 88.0886 32.4863 84.443 33.4806C83.2279 22.2118 71.8861 12.9316 57.7089 12.9316C42.7215 12.9316 30.5696 22.8747 30.5696 35.1378C30.5696 37.7892 31.3797 40.4407 32.1899 42.7607C30.9747 42.4293 29.3544 42.4293 28.1392 42.4293C13.1519 42.4293 1 52.3723 1 64.6354C1 76.5671 12.7468 86.5101 27.3291 86.8415H97C114.823 85.1844 129 73.5842 129 59.001Z" fill="#57A0EE" stroke="white" stroke-width="1.2" stroke-linejoin="round"/>
<path d="M49.8506 59.3987H79.9873L60.0582 88.0347H79.0151L36.2404 129L52.767 98.3754H34.2961L49.8506 59.3987Z" fill="#FFA500" stroke="white" stroke-width="1.2"/>
<path d="M22.4473 93.0124L22.6234 112.233" stroke="#51A0FF" stroke-width="3" stroke-linecap="round" stroke-dasharray="4 7"/>
<path d="M102.266 93.8016L103.049 111.547" stroke="#51A0FF" stroke-width="3" stroke-linecap="round" stroke-dasharray="4 7"/>
<path d="M86.0632 93.8016L86.8468 111.547" stroke="#51A0FF" stroke-width="3" stroke-linecap="round" stroke-dasharray="4 7"/>
</svg>
