<svg  viewBox="0 0 130 132" fill="none" xmlns="http://www.w3.org/2000/svg">
<path d="M39.6902 81.2084V92.6667" stroke="#FFA500" stroke-width="2" stroke-linecap="round"/>
<path d="M19.1716 71.1401L12.3321 79.2424" stroke="#FFA500" stroke-width="2" stroke-linecap="round"/>
<path d="M10.6725 46.8334H0.999942" stroke="#FFA500" stroke-width="2" stroke-linecap="round"/>
<path d="M19.1716 22.5265L12.3321 14.4242" stroke="#FFA500" stroke-width="2" stroke-linecap="round"/>
<path d="M39.6902 12.4584V1.00004" stroke="#FFA500" stroke-width="2" stroke-linecap="round"/>
<path d="M60.2087 22.5265L67.0483 14.4242" stroke="#FFA500" stroke-width="2" stroke-linecap="round"/>
<path d="M68.7078 46.8334H78.3803" stroke="#FFA500" stroke-width="2" stroke-linecap="round"/>
<path d="M60.2087 71.1401L67.0483 79.2424" stroke="#FFA500" stroke-width="2" stroke-linecap="round"/>
<path d="M39.6901 65.9306C48.5935 65.9306 55.811 57.3805 55.811 46.8334C55.811 36.2863 48.5935 27.7361 39.6901 27.7361C30.7868 27.7361 23.5692 36.2863 23.5692 46.8334C23.5692 57.3805 30.7868 65.9306 39.6901 65.9306Z" fill="#FFA500" stroke="#FFA500" stroke-width="2"/>
<path d="M129 78.9166C129 61.3472 117.071 47.5972 102.562 47.5972C99.3375 47.5972 96.4357 48.3611 93.534 49.5069C92.5667 36.5208 83.539 25.8264 72.2544 25.8264C60.3249 25.8264 50.6524 37.2847 50.6524 51.4166C50.6524 54.4722 51.2972 57.5278 51.942 60.2014C50.9748 59.8194 49.6851 59.8194 48.7179 59.8194C36.7884 59.8194 27.1158 71.2777 27.1158 85.4097C27.1158 99.1597 36.466 110.618 48.073 111H103.529C117.715 109.09 129 95.7222 129 78.9166Z" fill="#57A0EE" stroke="white" stroke-width="1.2" stroke-linejoin="round"/>
</svg>
