<svg viewBox="0 0 129 129" fill="none" xmlns="http://www.w3.org/2000/svg">
<path d="M73.02 0L74.8093 3.61412L77.8767 5.42118L74.8093 7.52941L73.02 11.1435L71.4863 7.52941L68.4189 5.42118L71.4863 3.61412L73.02 0Z" fill="#FFA500"/>
<path d="M124.143 30.1177L125.933 33.7318L129 35.5389L125.933 37.6471L124.143 41.2612L122.61 37.6471L119.542 35.5389L122.61 33.7318L124.143 30.1177Z" fill="#FFA500"/>
<path d="M101.649 35.2376C101.649 24.0941 106.761 14.4565 114.43 9.03529C110.596 6.3247 106.25 5.12 101.649 5.12C87.5901 5.12 76.0873 18.6729 76.0873 35.2376C76.0873 51.8023 87.5901 65.3553 101.649 65.3553C106.25 65.3553 110.596 63.8494 114.43 61.44C106.761 56.32 101.649 46.3812 101.649 35.2376Z" fill="#FFA500" stroke="#FFA500" stroke-width="1.6" stroke-linejoin="round"/>
<path d="M101.969 72.2823C101.969 54.9647 90.1463 41.4117 75.7678 41.4117C72.5726 41.4117 69.697 42.1646 66.8213 43.2941C65.8627 30.4941 56.9161 19.9529 45.7329 19.9529C33.9106 19.9529 24.325 31.247 24.325 45.1764C24.325 48.1882 24.9641 51.1999 25.6031 53.8352C24.6445 53.4588 23.3664 53.4588 22.4079 53.4588C10.5856 53.4588 1 64.7529 1 78.6823C1 92.2352 10.2661 103.529 21.7688 103.906H76.7264C90.7853 102.023 101.969 88.847 101.969 72.2823Z" fill="#57A0EE" stroke="white" stroke-width="1.2" stroke-linejoin="round"/>
<path d="M28.1593 109.177V128" stroke="#51A0FF" stroke-width="1.2" stroke-linecap="round"/>
<path d="M33.8076 111.933L22.5109 125.243" stroke="#51A0FF" stroke-linecap="round"/>
<path d="M36.1473 118.588H20.1712" stroke="#51A0FF" stroke-linecap="round"/>
<path d="M33.8076 125.243L22.5109 111.933" stroke="#51A0FF" stroke-linecap="round"/>
<path d="M50.5257 109.177V128" stroke="#51A0FF" stroke-width="1.2" stroke-linecap="round"/>
<path d="M56.1741 111.933L44.8773 125.243" stroke="#51A0FF" stroke-linecap="round"/>
<path d="M58.5137 118.588H42.5377" stroke="#51A0FF" stroke-linecap="round"/>
<path d="M56.1741 125.243L44.8773 111.933" stroke="#51A0FF" stroke-linecap="round"/>
<path d="M72.8922 109.177V128" stroke="#51A0FF" stroke-width="1.2" stroke-linecap="round"/>
<path d="M78.5405 111.933L67.2438 125.243" stroke="#51A0FF" stroke-linecap="round"/>
<path d="M80.8802 118.588H64.9042" stroke="#51A0FF" stroke-linecap="round"/>
<path d="M78.5405 125.243L67.2438 111.933" stroke="#51A0FF" stroke-linecap="round"/>
</svg>
