<svg viewBox="0 0 128 111" fill="none" xmlns="http://www.w3.org/2000/svg">
<path d="M9.72152 0L13.5021 6.08295L19.9831 9.12442L13.5021 12.6728L9.72152 18.7558L6.48101 12.6728L0 9.12442L6.48101 6.08295L9.72152 0Z" fill="#FFA500"/>
<path d="M117.738 50.6913L121.519 56.7742L128 59.8157L121.519 63.3641L117.738 69.447L114.498 63.3641L108.017 59.8157L114.498 56.7742L117.738 50.6913Z" fill="#FFA500"/>
<path d="M70.211 59.3088C70.211 40.553 81.0126 24.3318 97.2152 15.2074C89.1139 10.6452 79.9325 8.61755 70.211 8.61755C40.5063 8.61755 16.2025 31.4286 16.2025 59.3088C16.2025 87.189 40.5063 110 70.211 110C79.9325 110 89.1139 107.465 97.2152 103.41C81.0126 94.7927 70.211 78.0646 70.211 59.3088Z" fill="#FFA500" stroke="#FFA500" stroke-width="2" stroke-linejoin="round"/>
</svg>
